<?xml version="1.0" encoding="UTF-8" standalone="no"?>
<!-- Created with Inkscape (http://www.inkscape.org/) -->

<svg
   xmlns:dc="http://purl.org/dc/elements/1.1/"
   xmlns:cc="http://creativecommons.org/ns#"
   xmlns:rdf="http://www.w3.org/1999/02/22-rdf-syntax-ns#"
   xmlns:svg="http://www.w3.org/2000/svg"
   xmlns="http://www.w3.org/2000/svg"
   xmlns:xlink="http://www.w3.org/1999/xlink"
   xmlns:sodipodi="http://sodipodi.sourceforge.net/DTD/sodipodi-0.dtd"
   xmlns:inkscape="http://www.inkscape.org/namespaces/inkscape"
   width="400"
   height="330"
   viewBox="0 0 105.83333 87.3125"
   version="1.1"
   id="svg8"
   inkscape:version="0.92.5 (2060ec1f9f, 2020-04-08)"
   sodipodi:docname="bull.svg">
  <defs
     id="defs2">
    <linearGradient
       inkscape:collect="always"
       id="linearGradient894">
      <stop
         style="stop-color:#e4c4db;stop-opacity:1"
         offset="0"
         id="stop890" />
      <stop
         style="stop-color:#bd86b7;stop-opacity:1"
         offset="1"
         id="stop892" />
    </linearGradient>
    <linearGradient
       inkscape:collect="always"
       id="linearGradient886">
      <stop
         style="stop-color:#cec8b6;stop-opacity:1"
         offset="0"
         id="stop882" />
      <stop
         style="stop-color:#72632f;stop-opacity:1"
         offset="1"
         id="stop884" />
    </linearGradient>
    <inkscape:path-effect
       effect="simplify"
       id="path-effect4605"
       is_visible="true"
       steps="1"
       threshold="0.002"
       smooth_angles="0"
       helper_size="5"
       simplify_individual_paths="false"
       simplify_just_coalesce="false" />
    <linearGradient
       inkscape:collect="always"
       xlink:href="#linearGradient886"
       id="linearGradient888"
       x1="-97.100349"
       y1="228.95262"
       x2="-99.870773"
       y2="214.1028"
       gradientUnits="userSpaceOnUse"
       gradientTransform="translate(138.34166,5.7513405)" />
    <linearGradient
       inkscape:collect="always"
       xlink:href="#linearGradient894"
       id="linearGradient896"
       x1="-94.459503"
       y1="246.94655"
       x2="-95.680275"
       y2="240.18686"
       gradientUnits="userSpaceOnUse"
       gradientTransform="translate(138.34166,5.7513405)" />
  </defs>
  <sodipodi:namedview
     id="base"
     pagecolor="#ffffff"
     bordercolor="#666666"
     borderopacity="1.0"
     inkscape:pageopacity="0.0"
     inkscape:pageshadow="2"
     inkscape:zoom="1.4"
     inkscape:cx="215.26808"
     inkscape:cy="130.65364"
     inkscape:document-units="mm"
     inkscape:current-layer="layer1"
     showgrid="false"
     inkscape:window-width="1920"
     inkscape:window-height="948"
     inkscape:window-x="0"
     inkscape:window-y="27"
     inkscape:window-maximized="1"
     units="px" />
  <metadata
     id="metadata5">
    <rdf:RDF>
      <cc:Work
         rdf:about="">
        <dc:format>image/svg+xml</dc:format>
        <dc:type
           rdf:resource="http://purl.org/dc/dcmitype/StillImage" />
        <dc:title />
      </cc:Work>
    </rdf:RDF>
  </metadata>
  <g
     inkscape:label="Layer 1"
     inkscape:groupmode="layer"
     id="layer1"
     transform="translate(0,-209.68749)">
    <path
       style="opacity:1;fill:#d9dddf;fill-opacity:1;stroke-width:0.1889881"
       d="m 54.975418,283.93707 c 1.2797,0.89152 2.944647,1.04688 4.178036,1.9544 0.484804,1.28382 -0.458729,2.66412 -0.665591,3.93516 -0.424418,0.87281 -0.455718,2.44337 -1.531175,2.7342 -1.17543,-0.45472 -2.50099,-0.71069 -3.53777,-1.43919 0.28323,-1.00198 0.90882,-2.77406 0.95395,-3.28765 -0.53275,0.78478 -0.48519,2.25439 -1.43919,2.63033 -1.1662,-0.35556 -1.46521,-1.89826 -0.7028,-2.81171 0.66721,-1.37733 1.58164,-2.61163 2.45928,-3.85817 l 0.23666,0.11833 z m 17.790124,0.95033 c 1.107802,0.6211 2.792481,0.55264 3.630784,1.55649 0.234474,0.76772 -0.164012,2.0335 -0.240294,2.46549 0.182401,-0.79816 0.854406,-2.09772 1.846916,-1.43041 1.776545,1.20374 4.075279,0.98846 6.053376,0.48576 0.94162,-0.11328 2.117209,-1.17161 3.003951,-0.56792 0.76419,1.9031 0.28643,4.63552 -1.879473,5.36763 -1.521351,0.46533 -3.260325,1.26162 -4.841046,0.71882 -0.729226,-0.5691 -0.799439,-1.58322 -0.828374,-2.43706 -0.367651,0.83506 -0.980556,2.64004 -2.190564,2.12183 -1.254472,-0.84527 -1.77164,-2.44428 -1.271757,-3.8716 -0.199388,0.78581 -0.490053,2.3479 -1.657779,1.80093 -1.357516,-0.21958 -1.003437,-1.83658 -0.790133,-2.76831 -0.315817,0.72727 -0.693605,2.49951 -1.810226,1.70946 -1.305147,-0.76524 -0.269296,-2.42895 -0.07751,-3.53157 0.282334,-0.50087 0.412335,-1.88245 1.052134,-1.61954 z m -2.912486,2.13837 c 0.820058,1.94316 1.585405,4.08577 1.416968,6.21513 -1.064683,1.75041 -3.469095,1.88705 -5.258424,2.40466 -1.507696,0.20618 -3.651351,1.1655 -4.664482,-0.53811 -0.550268,-0.86467 -0.232347,-1.95247 -0.401011,-2.90835 -0.01783,0.91788 -0.390922,2.90972 -1.734772,2.28306 -1.678327,-0.89699 -0.819002,-3.07924 -0.394272,-4.4581 0.523912,-0.98506 0.330912,-3.3132 1.942219,-2.27747 2.102342,0.47422 4.347372,0.60249 6.451042,0.13494 0.787471,-0.14035 2.266019,-1.62753 2.642732,-0.85576 z"
       id="path5046-5"
       inkscape:connector-curvature="0"
       sodipodi:nodetypes="cccccccccccccccccccccccccccccccccccccc" />
    <path
       style="opacity:1;fill:#bb5f2d;fill-opacity:1;stroke-width:0.04724703"
       d="m 101.49143,254.14509 c 0.78559,-0.159 1.37505,0.65932 0.57568,1.12913 -0.32732,0.34408 -0.89737,0.79522 -0.87385,1.24231 0.65768,-0.34926 2.20267,0.0376 1.35082,0.91932 -0.44208,0.34608 -1.16559,0.80225 -0.11989,0.69815 0.57398,-0.0963 2.23176,-0.52372 1.79524,0.61597 -1.63431,1.78579 -4.291137,2.12202 -6.587184,2.27326 -0.55312,-1.31541 -1.8246,-3.07504 -0.4992,-4.29276 0.96327,-1.45243 2.617017,-2.46924 4.358384,-2.58538 z"
       id="path5098-6"
       inkscape:connector-curvature="0"
       sodipodi:nodetypes="ccccccccc" />
    <path
       style="opacity:1;fill:#7f5736;fill-opacity:1;stroke-width:0.09449405"
       d="m 66.466699,242.05849 c 4.086553,0.59949 8.217966,1.264 11.945067,3.14995 4.558123,1.97685 9.333287,4.76093 11.294859,9.59139 1.729731,3.57303 1.700491,7.9181 -0.03964,11.48454 -1.338634,2.73228 -3.387368,5.1683 -3.741004,8.29668 -0.918023,3.83279 0.157876,7.65829 0.702283,11.44943 -0.924889,1.51205 -3.043505,1.79426 -4.680336,1.91668 -1.572113,0.10138 -3.59027,-0.064 -4.539259,-1.36426 0.02471,-3.98382 0.923237,-8.00043 -0.130223,-11.90418 0.05901,-0.29219 -0.433189,-1.40791 -0.391191,-0.50798 0.529944,1.22678 -0.586698,1.27168 -1.570117,1.47035 -2.017694,0.4997 -4.124778,0.70573 -6.194267,0.45667 -0.132588,-1.55948 0.687536,-3.02486 0.897621,-4.48707 -1.236351,0.65143 -1.057156,2.44895 -1.289844,3.65973 -0.348737,3.76701 0.02376,7.45832 0.775144,11.16676 -2.211398,2.22272 -5.726848,1.92935 -8.528161,1.2702 -0.84819,-0.0989 -1.666838,-0.51882 -1.10019,-1.47536 0.986171,-4.93457 0.865994,-10.01986 -0.109554,-14.93345 -0.817694,-0.57048 -0.321939,1.04764 -0.291748,1.4671 0.149239,0.64043 0.621562,2.18255 -0.538697,1.7358 -3.241594,-1.09722 -6.275984,-2.89102 -8.761734,-5.24774 -8.1736,-9.22914 -7.7673,-19.23569 -1.46429,-22.72464 4.01036,-2.75311 4.86062,-2.36787 11.331238,-4.20491 1.5709,-0.47162 4.898677,0.26463 6.424045,-0.26569 z m 29.782167,16.52406 c 0.81445,0.48215 1.05016,2.56302 -0.29042,2.37298 -1.37255,0.0888 -2.73038,0.30273 -4.11707,0.29404 0.30108,-0.79141 -0.68233,-2.33383 0.34469,-2.59157 1.35546,0.29832 2.72108,0.0753 4.0628,-0.0754 z M 55.705088,274.04 c 1.42961,0.59003 3.158177,0.91285 4.352702,1.84123 0.44595,3.1749 0.344352,6.51848 -0.448551,9.61337 -1.023924,0.33516 -2.111411,-0.62303 -3.110401,-0.84646 -0.72966,-0.36527 -2.18244,-0.68212 -1.6341,-1.81165 0.63043,-2.91552 0.4368,-5.8604 0.40782,-8.80579 0.14025,0.0294 0.29201,-0.0223 0.43253,0.009 z m 20.939285,1.7694 c 0.840537,0.48839 0.44776,1.83576 0.697633,2.66289 0.199561,2.39951 0.158249,4.9432 -0.598414,7.22075 -1.194591,0.32604 -2.478183,-0.55295 -3.645254,-0.8382 -1.165554,-0.47698 -0.03638,-1.98572 -0.02687,-2.79207 0.562359,-1.83801 0.348586,-3.7597 0.226341,-5.61723 1.100849,-0.2625 2.218168,-0.55661 3.346566,-0.63614 z"
       id="path5108-5"
       inkscape:connector-curvature="0"
       sodipodi:nodetypes="ccccccccccccccccccccccccccccccccccccccccccccccc" />
    <path
       style="fill:#000000;stroke-width:0.08466667"
       d="m 63.116392,295.84149 c -3.217371,-0.0354 -0.98901,-4.59478 -2.44933,-4.98512 0.2121,1.54903 -0.249799,5.43966 -2.257097,2.51985 -0.235022,-1.2095 0.92438,-4.12236 1.480238,-5.57597 1.75591,0.47189 2.95952,0.76725 4.732689,0.81017 1.773171,0.0429 3.17051,-0.47301 4.927841,-1.62369 0.554619,1.27144 0.875519,1.99218 1.119359,3.41874 0.24384,1.42655 1.437169,3.05585 -1.204298,3.99232 -1.929591,0.82044 -4.482963,1.18626 -6.349402,1.4437 z m 19.0529,-2.5171 c -2.906179,0.71689 -2.174939,-1.81671 -2.518969,-3.52839 -0.66421,2.00698 -1.59739,4.90713 -3.096371,2.09845 -1.144519,-0.63243 0.13543,-5.53728 1.435261,-4.17429 2.921459,2.30048 7.06564,0.14391 8.84453,-0.50265 0.1444,1.45641 0.65028,2.53342 -0.139921,3.9825 -0.790199,1.44908 -1.618339,1.40748 -4.52453,2.12438 z m -25.063554,-0.97354 c -1.0736,-0.40073 -2.61943,-0.89503 -3.37724,-1.33675 0.51173,-1.66114 1.87831,-5.30763 0.79971,-4.37887 -0.28997,0.92377 -1.00203,2.22283 -1.39952,3.76235 -0.64805,-0.44831 -0.76439,-0.65617 -1.18253,-1.22618 0.55031,-1.75556 1.0477,-2.53863 1.47917,-3.08718 0.43148,-0.54855 0.95923,-1.31675 1.31361,-1.95216 0.60495,0.26662 0.86932,0.52113 2.11548,1.06012 1.131827,0.48954 2.147666,0.40631 2.214806,1.10007 -0.110159,1.64097 -0.437351,2.07419 -0.777351,3.2412 -0.24117,0.78637 -0.407328,1.73615 -1.186135,2.8174 z m -7.45304,-22.13353 c 1.20775,1.17514 1.85307,1.66243 2.40391,2.04989 1.10168,0.7749 1.27847,0.75796 1.82741,1.27182 0.26547,1.0572 0.35923,1.9321 0.416,3.26114 0.0568,1.32904 0.0886,3.42789 -0.10345,4.30097 -0.19208,0.87307 -0.74557,3.04353 -1.49223,4.19006 -0.74667,1.14652 -1.3443,1.91738 -1.70515,3.23329 -0.36084,1.31591 -0.32324,1.7685 1.35017,3.12046 1.67342,1.35197 4.7704,0.91424 5.568117,2.61896 1.996477,2.07049 4.443248,2.7906 7.470378,2.44661 2.870139,0.0824 8.52116,-2.62991 6.30973,-5.75747 3.409879,0.29281 4.314428,3.24714 7.370559,3.82545 2.05131,0.17346 5.11484,0.39553 7.25147,-1.33704 1.277201,-1.25418 1.813451,-1.47705 1.796201,-3.26432 -0.0172,-1.78727 -0.587979,-5.13895 -1.12382,-6.77085 -1.184201,-4.3119 -1.19661,-9.49093 1.116751,-13.41263 2.277039,-2.39726 3.026272,-5.52019 4.064962,-8.29069 3.45447,-0.5278 8.118654,0.44479 11.248544,-1.73032 0.50063,-0.42859 1.62628,-1.2158 1.65826,-2.60207 0.0128,-0.55443 0.13456,-0.29869 -1.46767,-0.0499 -0.43932,-0.61119 0.0948,-1.49755 -1.14583,-1.80154 0.98327,-1.65943 -0.10896,-2.2876 -1.62121,-2.02662 -1.512244,0.26099 -2.945504,1.22238 -3.692474,2.29245 -0.74697,1.07007 -0.6688,2.4199 -2.88176,2.54066 -1.26126,-0.13005 -2.03183,-0.61528 -2.60338,-1.34971 -0.57155,-0.73443 -0.79015,-2.36284 -1.905312,-3.95526 -1.11516,-1.59243 -2.047491,-3.43624 -4.842181,-5.22334 -4.847771,-3.85646 -11.090121,-5.55564 -17.111842,-6.20238 -17.101303,-0.35156 -34.335337,6.83204 -18.156153,28.62238 z m 25.571024,20.71846 c -0.878869,-0.0118 -1.435039,-0.32347 -1.671881,-0.65624 0.147363,-0.85059 0.497121,-2.27352 0.377733,-3.27171 -0.557422,0.62173 -1.037961,2.64322 -1.306082,3.0607 -0.5354,-0.10035 -0.95859,-0.36815 -1.217591,-0.61664 -0.0336,-1.19855 0.489421,-3.12169 1.16654,-4.30881 0.856911,0.35307 2.23484,0.53647 3.67162,1.38763 0.0405,0.93953 -0.528648,3.40172 -1.020339,4.40507 z m -0.541538,-5.87279 c -1.221301,-0.42878 -1.357501,-0.41484 -1.781821,-0.70402 -0.0401,-0.58985 0.433459,-1.85032 0.598739,-2.55613 0.33056,-1.41163 0.442701,-2.45039 0.134332,-5.08383 1.332169,-0.35929 2.081008,-0.48885 3.071069,-0.58938 0.257119,1.50162 0.63206,4.60556 0.30993,6.25569 -0.004,0.52207 -0.21081,1.88245 -0.475282,3.08839 -0.799018,-0.0302 -0.62003,-0.11458 -1.856967,-0.41072 z m -19.608786,-1.4482 c 0.20566,-1.38783 0.37682,-1.64621 0.43866,-2.71368 0.0618,-1.06746 0.18055,-1.93844 0.19813,-3.24923 0.0176,-1.31079 -0.14335,-2.42635 -0.13548,-3.32056 1.17652,0.41253 3.063246,1.12638 4.194905,1.62434 0.186439,1.76868 0.216329,1.86105 0.218599,3.67383 0.0021,1.81278 -0.164809,3.14092 -0.605107,5.69451 -0.59468,-0.14897 -1.288532,-0.40379 -2.006427,-0.66978 -0.71789,-0.26599 -2.30328,-1.03943 -2.30328,-1.03943 z m 14.875453,1.43822 c -0.171817,-2.23463 -0.711459,-5.56817 -0.481229,-7.94644 1.23249,-0.0731 1.909691,-0.0516 3.015911,-0.1887 0.17077,0.93193 0.229288,3.14138 0.10404,3.8683 -0.125251,0.72691 -0.59834,2.84354 -0.891191,3.68135 -0.693769,0.67078 -0.87321,0.83114 -1.747531,0.58549 z m 22.212805,-24.11503 c 0.10839,-0.44245 -0.0789,-1.49329 -0.16773,-2.02088 1.73137,0.5032 3.25759,0.11544 4.18705,-0.0323 0.36151,0.50371 0.47706,0.86322 0.28912,1.70842 -1.06978,0.0165 -3.31607,0.29414 -4.30844,0.34478 z m 4.70198,-3.25536 c 1.40359,-1.96378 1.6218,-2.07554 2.800727,-2.69493 1.309147,-0.5122 1.572777,-0.65102 2.527867,-0.36547 -0.24655,0.47741 -1.5561,1.06632 -1.40261,2.32242 2.07876,-0.42275 2.22381,-0.0835 0.49044,0.99216 0.25669,1.02417 2.21166,0.31945 2.58963,0.37343 0.37797,0.0539 -0.0651,0.44133 -0.65941,0.93289 -0.92255,0.69209 -3.836284,1.48354 -5.368164,1.40196 -0.26234,-0.51589 -1.01642,-1.87545 -0.97848,-2.96246 z M 66.382824,242.39708 c 1.589799,0.20594 3.675739,0.59218 5.951288,1.01791 2.27556,0.42575 4.602171,1.51484 7.18195,2.66517 2.579781,1.15032 4.123711,2.1891 5.611141,3.38109 1.48742,1.19199 1.9756,1.62865 2.91328,3.00137 0.93767,1.37271 1.94463,3.50983 2.279189,4.95856 0.334564,1.44873 0.559824,4.64902 -0.0798,6.36406 -0.63965,1.71503 -0.963021,2.9635 -1.899541,4.24612 -0.936519,1.28262 -2.045441,3.46831 -2.382999,4.88499 -0.337561,1.41668 -0.659351,2.36073 -0.725161,4.95833 -0.0658,2.59761 0.422371,4.00217 0.513461,4.80884 0.0911,0.80667 0.464468,2.3342 0.584799,3.39565 -1.626661,1.39698 -3.13822,1.4797 -4.77857,1.54836 -1.640351,0.0686 -2.73524,-0.17981 -3.799469,-1.03713 -0.185211,-2.24854 0.356909,-3.70327 0.39851,-6.28903 0.0416,-2.58575 -0.11665,-3.54343 -0.42023,-5.11757 -0.30358,-1.57415 -0.327991,-1.81208 -0.840272,-1.72658 -0.512267,0.0855 -0.431109,0.55919 -0.232619,1.50015 -2.335098,0.65945 -4.82116,1.12254 -7.187541,0.82974 -0.1055,-1.63826 1.009142,-3.31118 0.927521,-4.5351 -1.67245,-0.2382 -1.720109,2.36871 -1.98665,3.30421 -0.0395,1.73709 -0.149689,3.30881 -0.16654,4.43967 -0.01691,1.13085 0.11689,2.31485 0.25872,3.45175 0.141841,1.1369 0.442651,2.50422 0.63187,3.89212 -0.68372,0.62321 -1.701599,1.41643 -4.138419,1.49534 -2.436831,0.0789 -3.81381,-0.40093 -4.976111,-0.76131 0.327871,-1.16456 0.48066,-2.15342 0.595161,-3.18773 0.114499,-1.03432 0.18029,-2.08912 0.26897,-3.29678 0.0887,-1.20765 0.0374,-2.02213 -0.0314,-3.3154 -0.0687,-1.29327 -0.0914,-2.46942 -0.382241,-3.82718 -0.40145,-0.83176 0.356722,-2.9803 -1.514438,-2.62218 -0.134401,1.30972 0.36568,2.46676 0.464031,3.48194 -2.183336,-0.69537 -2.636926,-0.9441 -4.835846,-2.17549 -2.19891,-1.23139 -3.40165,-2.40294 -3.98752,-2.90659 -15.801814,-20.35252 0.63829,-26.35224 15.785476,-26.8273 z"
       id="path3778-3-3-1"
       inkscape:connector-curvature="0"
       sodipodi:nodetypes="cccczczcczcccczzccccczcsccccsczzzzzcccccsccccsccszcszccccccccccccscccccccccczczcczcscczcccccczcccsccczczzzzzzzccczcszzccczzczczzzcccczccc" />
    <path
       style="opacity:1;fill:#bb5f2d;fill-opacity:1;stroke-width:0.04724703"
       d="m 38.035324,247.70734 c -1.52844,0.6958 -2.12306,2.58008 -2.44961,4.12947 -5.3e-4,2.41173 0.47473,5.22634 2.15402,7.08432 0.748474,-0.0613 1.868544,-0.77585 1.061434,-1.57562 -1.108184,-2.14278 -1.080504,-5.1756 0.87747,-6.80578 -0.44691,-0.91086 -0.51208,-2.35324 -1.505854,-2.8298 -0.0457,10e-4 -0.092,-0.0149 -0.13746,-0.003 z"
       id="path5098-5"
       inkscape:connector-curvature="0"
       sodipodi:nodetypes="cccccccc" />
    <path
       style="opacity:1;fill:url(#linearGradient896);fill-opacity:1;stroke-width:0.06681738"
       d="m 61.684528,246.43816 c -1.53105,0.0167 -1.38011,2.03776 -0.71055,2.92903 0.96822,1.22661 3.37506,1.90424 4.32325,0.36018 0.38748,-2.03944 -1.94436,-3.15119 -3.6127,-3.28921 z m -34.960144,3.35381 c -2.577453,0.49996 -4.496633,2.62322 -6.255433,4.42866 -0.72836,1.04905 -1.92561,2.44576 -1.36581,3.78221 0.95877,0.75454 2.2869,-0.1819 3.2675,-0.51006 2.414613,-1.36343 4.838973,-3.31719 5.749013,-6.02391 0.23152,-0.84431 -0.54763,-1.71669 -1.39527,-1.6769 z"
       id="path5103-4"
       inkscape:connector-curvature="0" />
    <path
       style="opacity:1;fill:#7f5736;fill-opacity:1;stroke-width:0.09449405"
       d="m 36.249904,233.74954 c -0.79716,0.30107 -0.50221,1.40221 -0.38189,2.05052 -0.80022,-0.62083 -2.34999,-1.59228 -3.13366,-0.50591 0.51091,1.26468 2.32423,1.49022 3.21066,2.24224 -0.42348,0.24689 -0.4848,1.0514 -0.89917,0.65629 0.83318,-1.11148 -1.92588,-2.05783 -1.68982,-0.52348 0.17959,0.49862 1.08481,0.32076 0.51831,0.8599 -0.005,0.48391 0.39313,0.64178 -0.34675,0.71416 -1.15053,0.29697 -2.45412,0.30115 -3.22047,1.38338 -2.06744,2.0539 -2.27401,5.21829 -4.02921,7.47189 -2.395733,-0.27405 -4.192213,1.73903 -5.914893,3.08457 -1.8018,1.92535 -4.28767,4.17064 -3.93826,7.07399 0.58624,2.51079 3.8658,2.84531 5.84615,1.85518 3.457863,-1.55026 5.514823,-4.93489 7.845523,-7.74371 0.98474,1.88825 2.21858,4.33682 3.96404,5.58632 0.90547,-0.20551 -0.44841,-1.75603 -0.49758,-2.46661 -0.76868,-3.16881 -1.5167,-7.18605 1.05737,-9.75371 0.59132,-0.79589 2.52533,-1.33593 1.21105,-2.23831 -0.63132,-0.77629 -1.3611,-1.47715 -2.20383,-2.02108 3.1773,1.72089 4.923374,5.0171 6.078824,8.29818 0.87796,2.61131 2.1099,5.32372 4.48126,6.87298 10e-4,0.27784 -0.74541,-0.48269 -1.14825,-0.13746 -0.67382,-0.0948 -0.65872,1.05584 -0.76378,1.00408 -0.8474,-0.6245 -1.55468,0.92072 -2.29185,1.19424 -1.919214,1.43657 -4.797544,1.17274 -6.235544,-0.82039 -1.51366,-1.37672 -2.49211,-3.24571 -3.59951,-4.93946 -1.02704,0.0614 -1.50691,1.67869 -2.29643,2.35814 -0.76645,1.31581 -2.60957,2.37856 -2.01184,4.07092 0.90406,4.0479 1.96025,8.1361 3.78065,11.87679 0.42005,0.57569 1.17694,2.15198 2.00659,1.33067 -0.47579,1.98085 1.20473,3.71522 2.41949,5.07669 0.36784,0.52365 1.55235,0.96487 1.41801,-0.0465 -0.59924,-4.00993 0.20626,-8.21388 2.55953,-11.58843 2.280054,-3.42328 5.880694,-5.86948 9.404604,-7.88738 4.73949,-2.36384 10.07185,-2.90371 15.24144,-2.1115 0.52948,0.0525 1.68037,0.26769 1.16737,-0.56792 -1.40716,-2.6945 -3.15531,-5.24396 -3.77289,-8.26342 -0.78806,-3.09171 -3.46722,-5.08842 -5.5976,-7.25915 -1.66001,-1.75158 -4.20395,-2.07425 -6.381,-2.85926 -2.1509,-0.32716 -4.27502,-1.08538 -6.48539,-0.64646 -1.44385,0.27293 -2.16782,-1.20475 -2.26343,-2.40089 -0.63745,0.6959 -1.649434,0.96427 -2.307874,0.11885 -0.24179,-0.15432 -0.48118,-0.44082 -0.79995,-0.39894 z m 23.318474,11.06082 c 0.24617,0.92513 0.6576,2.02689 1.84537,1.63195 2.04507,-0.13543 4.74166,1.69815 4.05195,3.94446 -0.79224,1.21818 -2.46254,0.0947 -3.52434,0.42529 -0.53848,1.38171 1.33952,2.30822 2.48202,2.37506 1.43459,0.117 3.784717,-0.0808 4.061247,-1.85622 0.26802,-3.12405 -2.795037,-5.18972 -5.354187,-6.20479 -1.19788,-0.487 -2.47359,-0.74211 -3.75481,-0.88367 0.0643,0.1893 0.1285,0.37862 0.19275,0.56792 z m -32.733924,4.69843 c 1.83059,0.22511 1.75774,2.61965 0.67438,3.64989 -1.94879,2.55134 -4.686443,5.22965 -8.089433,5.26791 -1.34408,-0.19544 -0.65944,-2.05458 -0.24753,-2.83394 1.75728,-2.4909 4.16415,-4.64173 6.903453,-5.98103 0.24727,-0.0637 0.50271,-0.11158 0.75913,-0.10283 z m 14.330394,11.49645 c -0.47149,0.66974 -1.97372,1.58099 -2.33732,0.62838 0.70401,-0.18629 1.91926,-0.40764 2.33732,-0.62838 z m 21.82761,4.68654 c -1.8348,0.0272 -2.58977,2.87298 -0.652,3.46736 1.65945,0.83466 2.42505,-1.1015 1.93741,-2.46366 -0.28942,-0.50226 -0.68922,-1.00999 -1.28541,-1.0037 z m -12.39511,3.5326 c -1.61695,0.0111 -2.55451,1.99157 -1.22818,3.05604 1.3568,1.33325 3.54575,-0.47691 2.48394,-2.06809 -0.33992,-0.48779 -0.6489,-1.01167 -1.25576,-0.98795 z m -16.618104,0.30282 c -0.26174,0.8094 -1.6699,1.07541 -1.91875,1.46554 -0.2349,-0.60112 -0.91652,-1.01811 -1.20199,-1.46503 0.76577,0.60933 1.88687,1.17314 2.70216,0.31419 0.13069,-0.0785 0.41454,-0.38233 0.41858,-0.3147 z"
       id="path5108-3"
       inkscape:connector-curvature="0"
       sodipodi:nodetypes="ccccccccccccccccccccccccccccccccccccccccccccccccccccccccccccccccccccccccccc" />
    <path
       style="opacity:1;fill:#ffffff;fill-opacity:1;stroke-width:0.06681738"
       d="m 40.793818,254.65161 c -1.08259,0.0385 -1.97923,1.90806 -1.01855,2.57402 1.43215,0.7337 3.01875,-1.94689 1.34152,-2.53835 -0.1048,-0.028 -0.21477,-0.0384 -0.32297,-0.0357 z"
       id="path5112-6"
       inkscape:connector-curvature="0" />
    <path
       style="opacity:1;fill:url(#linearGradient888);fill-opacity:1;stroke-width:0.1889881"
       d="m 65.532868,210.97781 c -1.15325,0.61575 -0.59747,2.39759 -0.96479,3.43699 -0.4344,3.26138 -0.99921,6.56693 -1.96474,9.70742 -1.46074,3.87369 -2.9166,8.02782 -6.25957,10.71149 -1.12783,1.28842 -2.83942,1.79398 -4.13825,2.80861 -0.0213,0.96066 1.49093,1.22144 2.0929,1.86656 1.56076,1.01792 2.98141,2.20786 4.23075,3.56567 1.40711,0.77857 2.58083,-0.99246 3.50624,-1.7663 3.83252,-3.57921 5.834817,-8.9045 5.503509,-14.11955 -0.180523,-4.51845 0.451008,-9.136 -0.533779,-13.58832 -0.32539,-0.78755 -0.30986,-2.57725 -1.47227,-2.62257 z m -62.9408673,8.44651 c -1.11642,0.50551 -0.44914,2.14784 -0.50808,3.08041 0.84932,6.15596 2.7301299,12.27938 6.1567999,17.50708 2.1691494,2.90849 4.6539494,5.62901 7.4274904,7.96994 1.50047,0.97278 3.23973,1.80245 4.9599,2.15956 1.74122,-0.97284 3.37391,-2.32985 5.418793,-2.53577 1.33127,-1.46066 1.88373,-3.51444 2.73575,-5.28133 0.59383,-1.25933 -1.09335,-1.6755 -2.01073,-1.59733 -6.681813,-0.50746 -12.234554,-5.00588 -16.459684,-9.89547 -2.1965994,-2.06227 -3.1850794,-5.01107 -4.8687294,-7.39442 -0.71893,-1.40684 -1.41798,-3.08728 -2.7259399,-4.00957 -0.0418,-0.004 -0.0838,-0.0185 -0.12557,-0.003 z m 33.5809033,25.3354 c -2.00876,0.72511 -3.14013,3.08766 -3.08302,5.15059 0.10399,2.75236 0.30676,5.75367 1.82573,8.12974 0.48868,0.53956 1.84209,1.54981 2.15026,0.58031 -0.9802,-1.98989 -1.68952,-4.16343 -1.54409,-6.4244 -0.29697,-2.15914 1.44428,-3.6443 2.15387,-5.46323 0.0196,-0.77663 -0.66925,-1.92285 -1.50275,-1.97301 z m 21.069004,10.98589 c -6.84519,0.17405 -13.10887,3.87459 -17.61185,8.86406 -1.884484,1.922 -3.168944,4.48789 -3.645254,7.12875 -0.23275,2.35763 -0.40822,4.8532 -0.1478,7.1417 2.671534,2.61996 6.340734,4.051 9.959604,4.77335 4.70114,0.45861 9.56026,-0.22183 13.72268,-2.5492 3.47997,-1.80647 6.51608,-4.69496 8.258407,-8.22482 1.352341,-3.54322 1.80643,-7.74796 -0.19586,-11.15177 -1.140717,-1.83407 -1.907037,-4.31764 -3.989927,-5.29735 -2.04158,-0.6251 -4.22982,-0.69679 -6.35,-0.68472 z m 5.63738,9.84902 c 2.08542,0.15939 2.28108,3.81954 0.046,3.86177 -1.94692,-0.0711 -2.5029,-2.96721 -0.67282,-3.72018 0.18915,-0.10895 0.40962,-0.15597 0.62683,-0.14159 z m -12.31708,3.49487 c 1.79056,0.0848 2.41715,2.84668 0.67283,3.5512 -1.82374,0.99488 -3.6405,-1.8143 -2.03037,-3.10007 0.30867,-0.45011 0.86092,-0.49987 1.35754,-0.45113 z"
       id="path5046-3"
       inkscape:connector-curvature="0"
       sodipodi:nodetypes="cccccccccccccccccccccccccccccccccccccccccccccccccc" />
    <path
       style="fill:#000000;stroke-width:0.08466667"
       d="m 4.5958206,222.14177 c -0.16813,-0.49717 -0.8462799,-0.87789 -1.3103299,-1.89851 -1.07407,-1.99523 -1.5223,1.26831 -0.75464,2.6145 0.0199,1.71637 0.42393,3.67277 0.97225,4.93062 0.3231799,1.63459 0.3281499,2.0004 0.8038099,3.5423 0.70545,1.90772 1.23636,2.97916 1.99323,4.84384 0.67758,1.63364 2.0704,3.07106 2.76507,4.85568 1.5612594,1.19881 2.7679694,2.91971 4.0346994,4.32726 1.43131,0.62164 1.10959,1.85227 2.978891,2.53733 1.05997,1.08212 3.1874,1.3205 4.49788,2.0916 0.9277,-0.68284 1.41004,-1.06887 2.96807,-1.94423 1.558043,-0.87537 1.628383,-0.30364 2.596013,-0.64262 0.42429,-0.78785 1.02965,-2.26547 1.6272,-3.48213 1.69982,-2.57759 0.86334,-3.25758 -1.92115,-2.81875 -2.762153,-0.67028 -4.865313,-1.40663 -7.210093,-2.64286 -1.41659,-1.09839 -3.579,-2.10221 -5.129441,-3.81519 -1.94765,-1.87088 -3.6621097,-4.0808 -5.3245994,-5.71701 -0.0937,-0.96333 -1.35622,-2.17936 -1.55625,-2.85968 0.10488,-1.01334 -1.15677,-1.31111 -1.34995,-2.28915 -0.24497,-0.53351 -0.62421,-1.0769 -0.68066,-1.633 z m 36.5990474,59.84399 c 1.52637,0.64098 3.03357,1.11071 4.55537,1.38822 1.52181,0.27751 2.77233,0.28426 4.19554,0.22862 1.42321,-0.0556 3.25181,-0.468 4.83916,-0.86372 1.58735,-0.39573 3.01338,-1.08397 4.94278,-2.03256 1.9294,-0.94859 3.06231,-1.76727 5.45809,-4.44185 2.395767,-2.67459 2.725036,-4.03041 3.222188,-6.59627 0.49715,-2.56587 0.312309,-3.95462 -0.0549,-5.49482 -0.367239,-1.5402 -2.033718,-4.23821 -2.898088,-5.63617 -0.86436,-1.39795 -0.98139,-1.46526 -2.44808,-2.09138 -1.88224,-0.0777 -3.23254,-0.49097 -4.80678,-0.50222 -1.57424,-0.0112 -4.05291,0.31003 -6.20301,0.89408 -2.1501,0.58408 -3.33302,1.21714 -5.45848,2.40003 -2.12546,1.18291 -3.8298,2.55258 -5.69182,4.41284 -1.86201,1.86028 -2.580104,2.75924 -3.474344,4.67038 -0.89424,1.91116 -1.02253,2.23621 -1.15008,3.75451 -0.12756,1.51831 -0.51313,4.03541 -0.0884,6.81111 1.86334,1.7571 3.405754,2.40856 5.060854,3.0992 z M 28.106324,252.90237 c -1.55519,2.28467 -3.373113,3.93521 -5.336363,5.00197 -1.96325,1.06676 -4.38865,1.41738 -4.46771,-0.21356 -0.0986,-2.03316 1.30676,-3.35903 2.51619,-4.60872 1.19227,-1.23199 1.33034,-1.3866 4.091853,-3.27978 2.76152,-1.89319 4.75122,0.81543 3.19603,3.10009 z m 1.90036,0.24299 c -1.91402,2.427 -2.69396,3.35193 -3.96427,5.12691 0.21352,2.00412 0.99139,4.62895 1.71199,7.15805 0.57608,1.66667 1.13575,3.38264 1.38087,4.05172 0.24512,0.66909 1.20197,2.62735 2.06995,3.08832 0.63176,-0.55481 1.00118,-1.399 -0.11202,-2.2777 -0.84536,-0.66729 -1.14975,-1.6824 -0.47659,-1.30576 1.92108,1.07486 1.70962,1.75289 3.99227,-0.54886 -0.23777,1.63336 -0.77289,2.19929 -2.10682,2.52703 -0.43694,1.08568 -0.49139,1.65198 -0.68643,2.33497 0.15058,0.63504 0.27768,1.22822 0.72315,1.89254 0.44547,0.66433 0.66274,1.01508 1.26494,1.72753 0.60221,0.71246 0.95977,0.85476 1.39297,1.10004 -0.31849,-2.86172 -0.27436,-4.39554 -0.0227,-5.94973 0.26538,-1.63906 0.89088,-3.33513 1.97951,-5.24291 1.08862,-1.90779 2.433654,-3.64151 4.848534,-5.45977 2.41488,-1.81826 3.86363,-2.95399 6.36631,-4.02398 2.50267,-1.06999 5.22418,-1.74004 7.3609,-1.90992 2.13672,-0.16986 3.99962,-0.0564 5.32692,0.0755 1.3273,0.13194 1.45555,0.14592 2.64267,0.29889 -1.05124,-1.88496 -1.72951,-3.17404 -2.70367,-4.86245 -0.97416,-1.68841 -1.12123,-5.53389 -3.36948,-7.293 -1.39735,-1.74312 -2.88278,-3.07199 -4.56353,-4.52068 -1.98917,-0.63386 -3.76928,-1.55486 -5.86966,-1.90619 -1.38279,0.0454 -3.10883,-0.99339 -4.60868,-0.48502 -2.05979,0.0933 -2.94425,0.10926 -3.47155,-2.19267 -1.796474,2.00372 -3.242444,-2.67201 -3.032764,0.91027 1.29948,2.97616 -1.21572,-1.16914 -3.01616,-0.15163 0.32094,0.94543 5.08988,2.42253 4.38082,3.10591 -1.58601,-1.65382 -2.23742,0.28042 -1.0604,0.98722 -1.63823,-0.77455 -2.30832,0.4293 -4.73048,0.5585 -3.26571,1.99211 -3.18641,6.39153 -5.26247,8.50728 -1.805103,-0.38087 -2.813013,0.70985 -4.201133,1.63124 -1.38812,0.92139 -3.17689,2.85596 -4.26091,4.36354 -1.08402,1.50759 -1.56866,3.18963 -1.01201,4.2722 0.55665,1.08257 1.72337,1.66356 3.52282,1.54102 1.79946,-0.12253 4.11948,-1.67395 5.878843,-3.72016 1.75936,-2.04618 2.49473,-3.07786 3.84863,-4.82582 0.28724,0.56147 1.17603,2.43704 1.76658,3.3193 0.59054,0.88226 1.24922,1.69683 2.22883,2.69208 -1.22649,-2.07907 -1.43966,-4.54937 -1.62873,-6.61415 -0.10426,-2.03053 0.34926,-3.60467 1.20486,-4.72916 0.85559,-1.12448 1.39266,-1.61726 2.22888,-2.26335 -0.55023,-0.56255 -0.83263,-1.09433 -1.74121,-1.83966 -0.9086,-0.74532 -2.07056,-1.21551 -1.85319,-1.5737 0.21736,-0.35819 0.79151,0.0242 2.25972,0.98974 1.46823,0.96556 2.84435,2.34813 3.980394,4.57772 0.74542,1.74983 1.39039,3.1631 2.0996,5.0294 0.6384,1.97989 1.94522,4.00862 3.77864,5.02854 0.23766,0.91559 0.1152,1.29744 -0.21107,0.98651 -0.24577,-0.23423 -0.56728,-0.65197 -1.04449,-0.52144 -0.63092,0.17257 -0.57594,0.16578 -0.53971,1.14316 0.0362,0.97739 -0.884,4.40186 -3.61437,4.50175 -2.543224,-2.01348 2.34373,-0.50188 2.82185,-2.89712 0.7721,-3.61449 -0.48425,-1.21061 -2.06412,-0.33521 -1.579874,0.87539 -3.692174,1.35499 -5.626664,-0.41682 -1.9345,-1.77181 -3.17409,-3.56788 -4.20613,-5.66002 z m 7.05271,5.54513 c -2.07648,-1.9713 -2.25234,-7.57495 -1.35682,-9.16807 0.89551,-1.59312 1.52126,-2.16796 1.88217,-2.77463 -0.42194,-0.95449 -0.67136,-1.35986 -1.32243,-1.90673 -0.65108,0.38856 -0.88271,0.55611 -1.93779,1.72405 -0.52754,0.58399 -1.05467,1.93194 -1.02578,3.88216 0.0289,1.95021 0.61379,4.5027 1.04078,6.09255 0.28171,0.8007 0.77367,1.64422 1.59236,1.99196 0.81869,0.34775 1.12751,0.15871 1.12751,0.15871 z m 1.674304,-0.63413 c -0.675504,-1.49969 -0.950954,-2.25305 -1.025244,-3.32566 -0.0743,-1.07261 0.29629,-2.6478 0.760524,-3.3773 0.46423,-0.7295 0.50318,-0.58126 0.81867,-0.89434 -0.31138,-1.00631 -0.77473,-2.01077 -0.93381,-2.26966 -0.318194,-0.51778 -1.135564,0.41445 -1.688894,1.39976 -0.55333,0.98533 -0.82883,1.77846 -0.8934,3.13092 -0.0646,1.35247 0.20665,4.29772 2.0518,5.89588 0.40022,-0.1558 0.541894,-0.23756 0.910354,-0.5596 z m 2.15087,-1.23262 c 1.92485,-1.7114 -1.03096,-3.11317 -1.19464,-0.0958 0.23904,0.38883 0.87879,0.30807 1.19464,0.0958 z m -9.111354,19.1533 c -0.2249,-0.37711 -1.82356,-2.91283 -2.10752,-3.49855 -0.56792,-1.17146 -1.05173,-2.22014 -1.5634,-3.41154 -0.51166,-1.19141 -1.16667,-3.26853 -1.59885,-5.10518 -0.43218,-1.83666 -0.81051,-3.88461 -1.19887,-4.91988 -1.014393,0.85461 -2.337923,1.73935 -3.731083,1.97578 -1.39316,0.23642 -4.82515,0.15058 -5.478,-1.81515 -0.65286,-1.96574 -0.24263,-3.06905 0.55566,-4.42005 0.79829,-1.35099 2.3811,-3.16883 3.3463,-4.12953 -2.00817,-0.60991 -3.42995,-1.24255 -3.95066,-1.47958 -0.52072,-0.23702 -1.128,-0.57836 -1.885991,-1.15985 -0.75799,-0.58148 -1.28108,-1.21684 -2.24651,-2.17339 -2.2114097,-1.82674 -3.2644394,-4.18888 -4.8522394,-6.3713 -1.82466,-2.10337 -2.61107,-4.84937 -3.5542799,-7.50126 -0.53579,-2.58202 -1.28477,-5.00073 -1.81629,-7.96463 -1.55605004,-3.13192 0.42943,-9.57241 2.8473999,-3.85393 0.85009,0.78146 0.74623,1.94241 1.25941,2.74484 v -3e-5 c 1.04846,2.52748 3.19204,5.30411 4.9382894,7.75956 2.17036,2.90986 4.971251,4.98685 8.115281,6.78312 2.03924,1.72582 3.91231,1.77214 6.328833,2.53344 2.48414,0.27869 8.54137,-1.02134 7.54772,-3.82036 -2.59603,-1.46725 -3.47206,-2.23707 -2.09709,-2.10217 3.4129,0.33536 4.53322,-0.32884 6.19717,-2.28644 1.0006,0.67644 1.2518,1.99494 3.232364,0.63128 0.9783,0.23995 1.68143,1.00498 1.18045,2.31172 1.41558,1.19412 5.62092,1.00086 8.01414,1.63993 3.33879,0.0822 6.12385,-1.06374 8.01811,-3.49497 2.27901,-2.87262 4.47391,-5.9008 5.0748,-9.35688 1.94403,-4.15264 0.99353,-9.09296 2.61355,-13.17698 3.969407,-0.0562 2.652267,7.41168 3.247087,10.4922 0.340371,6.18619 0.513141,12.92881 -3.228347,18.23521 -0.66661,1.16445 -3.59761,3.52157 -4.41878,4.50172 1.18335,0.32866 1.6099,0.27768 3.69661,1.25121 2.0867,0.97351 4.567248,2.70232 4.992478,5.52681 0.480668,3.32954 -4.743018,3.64971 -5.715278,3.45695 0.6389,0.973 0.95947,1.32416 1.74851,2.6866 0.78904,1.36243 2.581087,3.5691 3.089338,4.67838 1.01649,2.21856 1.34778,4.11166 1.30284,6.69515 -0.0449,2.58349 -0.798301,4.39618 -1.552842,6.04976 -0.754539,1.65357 -1.965326,2.9486 -3.117616,4.04828 -1.1523,1.09968 -2.29237,2.11962 -3.99419,3.12988 -1.70182,1.01026 -3.90041,1.99635 -6.74416,2.84392 -2.84375,0.84757 -5.77951,1.02441 -9.52262,0.26372 -3.74311,-0.76069 -6.23162,-2.31994 -8.130484,-3.62311 -1.89887,-1.30318 -3.24462,-2.56294 -3.83813,-3.24767 -0.5935,-0.68473 -0.77821,-0.94992 -1.00311,-1.32703 z M 20.214831,257.88337 c 3.73227,-0.61821 8.179563,-5.56344 7.550163,-7.05931 -0.62941,-1.49588 -2.61222,-0.31075 -4.223483,0.9456 -1.61125,1.25637 -2.78456,2.46588 -3.39209,3.41948 -0.60752,0.95361 -1.70704,3.20232 0.0654,2.69423 z m 45.093457,-9.94427 c 0.88256,1.03271 0.83641,2.25166 0.23605,2.93651 -0.60036,0.68485 -2.21041,0.45303 -3.39999,0.10915 -0.17317,2.42649 5.226317,2.37381 5.941777,0.72637 0.937739,-3.82397 -4.723317,-6.80315 -8.189737,-7.03433 0.20994,0.71945 0.3149,1.05318 0.60301,1.44589 2.55154,-0.28381 3.82127,0.66074 4.80889,1.81641 z m -0.30377,1.60817 c -0.0409,-1.22199 -0.2727,-1.61357 -1.71442,-2.34117 -1.44172,-0.72759 -2.92408,-0.7054 -2.34241,1.23875 0.0524,0.63636 0.5688,1.17729 1.57782,1.6332 1.00902,0.4559 2.47727,0.0584 2.47901,-0.53078 z M 34.830154,238.58733 c -0.39558,-0.71429 -1.14687,0.64865 0,0 z m 0.46842,0.0795 c -0.31503,-0.31805 -0.46272,0.31007 0,0 z m -0.43046,-0.78861 c -0.53324,-1.46911 -2.39398,-0.0775 0,0 z m 30.279534,-26.29193 c -0.1422,2.7287 -0.83047,6.02048 -1.12622,8.1341 0.15535,1.223 -1.0563,2.55443 -0.87661,3.85013 -0.7554,1.35269 -0.81412,2.36746 -1.47615,3.96007 -0.4515,1.14049 -1.60011,3.14107 -2.33602,4.56101 -1.01747,1.38894 -1.88038,2.10808 -3.69488,3.75914 -0.65939,1.10245 -4.51901,1.53011 -2.64609,2.5258 1.81554,0.86423 3.17231,2.3095 4.70605,3.29513 1.41147,3.53288 4.24857,-0.827 5.74472,-2.19261 2.87879,-3.52167 4.104956,-8.2894 3.908786,-12.83425 0.109432,-4.99576 0.351841,-10.22042 -1.143206,-15.01379 -0.20191,-0.47519 -0.86891,-0.56046 -1.06038,-0.0447 z m -15.72635,61.27492 c -2.45754,-1.32622 -0.44482,-5.37045 2.06219,-3.80299 2.50702,1.56749 0.39535,5.1292 -2.06219,3.80299 z m 2.43181,-2.64888 c -1.07875,-1.67051 -3.63069,0.0616 -2.57219,1.78303 1.05849,1.72148 3.65093,-0.11252 2.57219,-1.78303 z m 9.59271,-1.13039 c -2.03844,-1.99232 1.08775,-5.30329 2.84879,-3.0255 1.76103,2.27779 -0.81036,5.01784 -2.84879,3.0255 z m 2.26969,-0.0465 c 0.56923,-0.43435 0.92753,-1.30821 0.5367,-2.11409 -0.39082,-0.80589 -1.26551,-1.22294 -2.01453,-0.64643 -0.74902,0.57651 -1.00498,1.5982 -0.64891,2.19449 0.35607,0.5963 1.55752,1.00039 2.12674,0.56603 z"
       id="path3778-3-3-4"
       inkscape:connector-curvature="0"
       sodipodi:nodetypes="cccccccccczcccccccccczzzzzzzczzzzzzccccsszzcczcssccczzcszzzzczczccccccccccczzzzzzcczczzzccccsszczzccccccszcczccczczzccccccczzzczczcczzcccccccccccccccccccccczccsszzzzzzzzzsszccscccccscccscccczzzzzccccccccczzzzzzczccccczccc" />
  </g>
  <g
     inkscape:groupmode="layer"
     id="layer2"
     inkscape:label="Head"
     transform="translate(0,-7.9374996)" />
</svg>
